<?xml version="1.0" encoding="UTF-8" standalone="no"?>
<!-- Created with Inkscape (http://www.inkscape.org/) -->

<svg
   version="1.1"
   id="svg62"
   width="370.771"
   height="389.616"
   viewBox="-5 -9 370.771 389.616"
   sodipodi:docname="veilchen.svg"
   inkscape:version="1.2.2 (b0a8486541, 2022-12-01)"
   xmlns:inkscape="http://www.inkscape.org/namespaces/inkscape"
   xmlns:sodipodi="http://sodipodi.sourceforge.net/DTD/sodipodi-0.dtd"
   xmlns="http://www.w3.org/2000/svg"
   xmlns:svg="http://www.w3.org/2000/svg">
  <defs
     id="defs66" />
  <sodipodi:namedview
     id="namedview64"
     pagecolor="#ffffff"
     bordercolor="#000000"
     borderopacity="0.25"
     inkscape:showpageshadow="2"
     inkscape:pageopacity="0.0"
     inkscape:pagecheckerboard="0"
     inkscape:deskcolor="#d1d1d1"
     showgrid="false"
     inkscape:zoom="1.6132812"
     inkscape:cx="299.69977"
     inkscape:cy="195.25424"
     inkscape:window-width="1920"
     inkscape:window-height="1002"
     inkscape:window-x="0"
     inkscape:window-y="27"
     inkscape:window-maximized="1"
     inkscape:current-layer="g68" />
  <g
     inkscape:groupmode="layer"
     inkscape:label="Image"
     id="g68"
     transform="translate(-75.186019,-61.041091)">
    <path
       style="fill:#992299;fill-opacity:1;stroke:#992299;stroke-opacity:1"
       d="m 253.47911,411.79823 c -6.60957,-13.80144 -13.46269,-25.43294 -19.46812,-33.04237 l -4.50195,-5.70437 -5.77118,2.70437 c -5.36787,2.51538 -6.6797,2.70109 -18.77119,2.65724 -11.53366,-0.0418 -13.90236,-0.35917 -21,-2.81349 -25.67214,-8.87726 -46.53906,-27.09215 -61.11776,-53.35014 -11.87082,-21.38076 -16.32826,-48.82357 -11.17322,-68.78923 1.56135,-6.04713 2.55436,-6.33696 13.86178,-4.04579 22.72947,4.60558 44.59062,14.70919 56.81829,26.25981 2.49546,2.35729 5.18554,4.28598 5.97796,4.28598 2.46714,0 13.76693,6.81326 21.52645,12.97947 12.03803,9.56617 20.77088,21.58776 26.16644,36.02053 2.45005,6.55373 2.8124,8.95094 2.87193,19 0.0592,9.99086 -0.22714,12.09916 -2.18187,16.06572 -2.66777,5.41347 -2.74313,6.28013 -0.694,7.98075 0.8558,0.71025 4.6808,5.96441 8.5,11.67591 3.8192,5.7115 6.944,9.72538 6.944,8.91975 0,-0.80564 -1.07553,-6.1172 -2.39008,-11.80347 -4.14831,-17.94423 -5.11338,-26.54013 -5.03406,-44.83866 0.0858,-19.79257 2.11054,-32.11514 7.41634,-45.13566 1.65052,-4.05039 3.00249,-8.6048 3.00437,-10.12092 0.004,-3.58758 -2.78867,-22.21513 -4.02075,-26.81466 l -0.95664,-3.57124 -8.33201,0.43732 c -30.42424,1.59687 -60.02225,-22.01605 -55.74424,-44.47204 0.50533,-2.65254 1.20877,-5.57311 1.5632,-6.49016 0.47546,-1.23018 -0.28656,-2.10915 -2.90624,-3.35226 -8.73301,-4.14409 -16.54875,-13.85592 -19.21812,-23.88045 -4.83872,-18.17125 4.21428,-38.34059 20.23182,-45.07484 3.00841,-1.26482 3.09727,-1.47883 2.63063,-6.33525 -1.66384,-17.31595 11.66222,-35.291903 30.52848,-41.180833 18.14725,-5.664494 35.18041,-2.20961 48.3378,9.80449 4.77938,4.36409 5.67251,4.80897 7.8895,3.92984 1.375,-0.54524 6.55,-0.97936 11.5,-0.96469 20.14836,0.0597 38.4821,11.406113 46.79855,28.962823 3.02454,6.38507 3.20145,7.394 3.20145,18.25853 0,10.52472 -0.22584,11.92786 -2.66301,16.5451 -1.46466,2.7748 -4.67654,7.28461 -7.13751,10.0218 l -4.47448,4.97671 0.99058,5.7496 c 1.96421,11.4008 -2.7364,25.87904 -11.03949,34.00249 -7.04809,6.8956 -13.91472,9.91815 -24.12668,10.62006 l -8.50012,0.58424 -0.74012,4.35323 c -1.51921,8.93566 -8.69221,16.80539 -18.57473,20.37896 -3.2902,1.18975 -3.41802,1.41987 -2.91946,5.25602 1.33317,10.25804 2.94028,21.03934 3.17562,21.30369 0.14292,0.16054 2.77352,-2.31446 5.84577,-5.5 5.17604,-5.3669 5.54391,-6.05954 5.01337,-9.43932 -2.32345,-14.8015 16.64705,-24.64719 37.19016,-19.30172 8.65078,2.251 10.81215,3.90863 10.16708,7.79747 -2.34585,14.14223 -13.40669,27.06326 -24.88662,29.07203 -5.45593,0.95468 -12.20816,-1.12376 -16.17895,-4.98014 l -3.44273,-3.34354 -4.9445,5.22808 c -2.71947,2.87544 -5.5014,6.26865 -6.18206,7.54047 -2.16977,4.05426 -3.26799,101.38511 -1.25057,110.83309 l 0.81177,3.80168 1.29864,-4 c 0.71424,-2.2 3.31069,-7.86013 5.76988,-12.57806 l 4.47125,-8.57806 -2.59135,-3.81856 c -9.98451,-14.71301 -6.26067,-40.80616 8.84456,-61.97424 9.45535,-13.25048 31.16901,-30.73222 41.71472,-33.58465 2.00256,-0.54165 4.33625,-2.04589 5.18598,-3.34274 3.96546,-6.05206 21.43809,-16.59235 36.43933,-21.98188 8.74281,-3.14105 25.34797,-6.64181 31.50411,-6.64181 h 4.45627 l 1.38665,6.25 c 0.85763,3.86558 1.38215,12.16335 1.37488,21.75 -0.01,13.03557 -0.38602,16.93096 -2.36563,24.5 -9.86721,37.72734 -36.04537,69.36473 -67.5025,81.57957 -10.38259,4.03157 -16.17735,5.03578 -28.88414,5.00548 -8.73895,-0.0208 -12.06507,-0.47813 -17.67954,-2.43065 l -6.91552,-2.40498 -5.01037,10.12529 c -2.75571,5.56891 -6.88361,15.97529 -9.17312,23.12529 -2.28951,7.15 -4.46704,13.82709 -4.83896,14.83799 -0.50293,1.36702 -2.06753,-1.06724 -6.10602,-9.5 z m 0.77707,-48.58799 c -0.15923,-8.1125 0.10468,-25.775 0.58646,-39.25 0.86859,-24.29357 0.35648,-28.43812 -2.16234,-17.5 -3.24093,14.07395 -4.07589,33.23652 -2.1786,50 1.23506,10.91239 3.01138,21.5 3.60713,21.5 0.24027,0 0.30658,-6.6375 0.14735,-14.75 z m -42.65225,2.72557 c 4.04951,-1.75763 7.7456,-3.55154 8.21355,-3.98644 1.15188,-1.07056 -11.44278,-6.98913 -14.87279,-6.98913 -1.50483,0 -5.71549,1.07191 -9.35703,2.38202 -3.64155,1.31011 -10.17281,3.16959 -14.51391,4.13218 l -7.89293,1.75016 5.32682,2.53173 c 7.5331,3.58033 10.492,4.17711 18.59629,3.75071 5.22643,-0.27498 9.10846,-1.23109 14.5,-3.57123 z m 113.94758,1.91956 c 3.52834,-1.15768 7.76516,-2.82267 9.41516,-3.69998 l 3,-1.5951 -5.48867,-0.82615 c -3.01877,-0.45438 -10.19427,-2.43399 -15.94554,-4.39913 -7.57662,-2.58884 -11.42916,-3.41521 -13.98679,-3.00016 -4.56368,0.74058 -16.51933,6.61672 -15.42103,7.57935 0.89418,0.78373 17.46527,6.65321 20.84203,7.38224 4.89504,1.05683 11.66196,0.50228 17.58484,-1.44107 z M 286.80833,356.7539 c 3.38709,-2.286 8.18334,-5.82608 10.65834,-7.86685 4.94748,-4.07945 12.86712,-8.39302 13.76357,-7.49657 0.70615,0.70614 0.93738,0.51803 -6.12279,4.98091 -3.22257,2.03706 -5.65644,3.90653 -5.40859,4.15438 0.4228,0.4228 8.59919,-0.27014 30.56229,-2.59009 5.11196,-0.53997 12.88602,-2.16879 17.27569,-3.61958 4.38966,-1.4508 8.29411,-2.32491 8.67656,-1.94247 2.78362,2.78362 -24.95533,9.56375 -39.19673,9.58071 -3.01579,0.004 -4.57879,0.36303 -4,0.91987 1.6661,1.60291 13.21205,4.94632 21.42095,6.20296 l 7.94155,1.21571 4.22164,-2.91632 c 11.877,-8.20466 25.11707,-25.12676 35.53433,-45.41632 9.82785,-19.14158 13.94783,-35.59306 13.0542,-52.12669 -0.65769,-12.16829 -1.50121,-13.87331 -6.86351,-13.87331 -6.56292,0 -19.24461,3.56414 -32.00995,8.99628 -12.22822,5.20358 -25.55288,15.04325 -30.41037,22.45671 -1.28734,1.96473 -2.00592,2.32127 -3.00585,1.4914 -2.87706,-2.38775 -15.13571,5.00856 -26.16472,15.78661 -17.00106,16.6142 -24.34621,32.83311 -22.99006,50.76459 0.30745,4.0651 1.01398,8.20408 1.57007,9.19775 0.9051,1.61728 1.12902,1.49218 2.1362,-1.19334 0.61882,-1.65 2.87803,-5.925 5.02047,-9.5 2.14244,-3.575 4.3551,-8.57241 4.91702,-11.10535 2.27651,-10.26178 9.10885,-26.4645 13.79324,-32.71033 3.32495,-4.43326 4.05461,-3.36521 1.00508,1.4712 -3.06355,4.85862 -9.34814,20.59561 -10.29335,25.77513 l -0.7173,3.93064 11.13708,-11.11943 c 10.72243,-10.70545 11.36645,-11.5964 17.29805,-23.93065 7.03231,-14.62306 8.91895,-15.1706 3.03517,-0.88086 -2.16716,5.26331 -3.76718,9.56965 -3.55559,9.56965 0.77909,0 14.02498,-9.49541 18.70571,-13.40932 4.99167,-4.1739 13.9914,-15.45467 17.22492,-21.59068 1.3835,-2.62537 1.93779,-3.06266 2.21806,-1.74991 0.36738,1.72076 -4.99827,12.15304 -6.83434,13.2878 -0.51629,0.31908 -0.9387,1.01514 -0.9387,1.54681 0,2.5658 15.04615,-7.95071 18.97166,-13.26024 1.33148,-1.80093 4.13256,-6.20353 6.22461,-9.78357 2.09205,-3.58003 3.79385,-5.84129 3.78177,-5.02502 -0.0335,2.26172 -3.76848,10.0206 -6.62933,13.77137 -1.40288,1.83927 -2.35938,3.53542 -2.12557,3.76923 0.23381,0.23381 3.05443,-1.15819 6.26805,-3.09333 3.21361,-1.93513 6.27421,-3.37467 6.80133,-3.19897 1.15975,0.38659 -6.4579,5.54611 -19.29252,13.06706 -5.225,3.0618 -13.1,8.11146 -17.5,11.22147 l -8,5.65457 5.5,-0.65906 c 16.69995,-2.00111 33.94331,-7.24121 42.26458,-12.8438 1.52051,-1.02375 3.27696,-1.69056 3.9032,-1.48182 1.93187,0.64396 -9.27659,7.38476 -16.7326,10.06305 -3.88566,1.39577 -12.21066,3.49615 -18.5,4.66751 -16.23695,3.02403 -23.81761,5.5065 -30.554,10.00565 -11.58004,7.73416 -11.96905,8.61375 -2.87293,6.49609 3.29546,-0.76721 10.49175,-1.87621 15.99175,-2.46443 19.26228,-2.0601 36.38451,-6.24778 42.84012,-10.47766 2.52981,-1.65759 5.25179,-1.27955 4.10834,0.57059 -2.51493,4.06924 -21.69047,9.40218 -44.58938,12.40082 -19.54377,2.55928 -26.54777,4.52512 -32.66816,9.16912 -5.12656,3.8899 -12.19092,10.45395 -12.19092,11.32754 0,0.39939 2.3625,0.11134 5.25,-0.6401 2.8875,-0.75144 14.475,-2.02119 25.75,-2.82166 21.22892,-1.50715 30.49272,-3.25228 42.2652,-7.96202 3.51545,-1.4064 6.94547,-2.55709 7.62228,-2.55709 2.3904,0 -0.13969,2.14247 -5.33805,4.52026 -11.21266,5.12878 -24.38348,7.56913 -48.54943,8.99547 -16.98392,1.00244 -27.59846,4.13458 -32.65871,9.63695 -2.99367,3.25524 -8.23541,13.89794 -8.85068,17.97018 -0.28063,1.85743 -0.23957,2.8034 0.0912,2.10215 0.33081,-0.70124 3.37273,-3.14534 6.75981,-5.43135 z m -98.55368,0.0137 c 8.12005,-2.36345 10.01734,-3.80436 5.02104,-3.81327 -13.59867,-0.0242 -40.80902,-7.44967 -40.80902,-11.1364 0,-1.22118 0.69913,-1.04666 10.23682,2.55543 7.56492,2.85704 14.24216,4.08061 30.26318,5.5456 6.05,0.55323 12.125,1.27152 13.5,1.59622 2.49268,0.58863 2.49158,0.58316 -0.37614,-1.87043 -1.58187,-1.35344 -5.0531,-3.48043 -7.71383,-4.72665 -2.66074,-1.24622 -4.61821,-2.62102 -4.34993,-3.05511 0.8412,-1.36109 9.30429,2.39031 14.22572,6.30579 2.5928,2.06282 6.51418,4.9727 8.71418,6.46638 2.2,1.49369 5.0125,3.60633 6.25,4.69475 2.01559,1.77279 2.25,1.80106 2.25,0.2714 0,-2.15741 -4.46121,-11.12492 -7.64574,-15.36877 -2.98438,-3.97713 -9.38315,-7.81494 -15.35426,-9.20908 -2.475,-0.57787 -11.925,-1.9463 -21,-3.04096 -21.84376,-2.63489 -38.63626,-7.25983 -45.427,-12.51137 -3.81661,-2.95154 -0.59958,-2.60007 7.08811,0.77439 11.37549,4.9932 27.33849,8.40399 47.83889,10.22167 3.85,0.34136 9.59976,1.32968 12.77725,2.19627 3.17748,0.86659 6.00202,1.35085 6.27674,1.07612 1.06356,-1.06355 -13.37246,-12.25112 -19.28077,-14.94213 -3.5528,-1.61817 -13.42976,-4.34732 -23,-6.35524 -9.22527,-1.93555 -19.02322,-4.24172 -21.77322,-5.12482 -6.8051,-2.18532 -20.56276,-9.35713 -21.21618,-11.05991 -0.93216,-2.42917 0.51196,-2.57885 3.60838,-0.374 4.78474,3.40704 13.47439,7.06435 23.92574,10.06991 10.68009,3.07134 31.11324,7.40901 31.77654,6.7457 0.70314,-0.70314 -19.32537,-14.06263 -32.09448,-21.40777 -14.36115,-8.26094 -20.5,-12.2928 -20.5,-13.46397 0,-1.39375 0.73864,-1.08179 7.26806,3.06964 3.40548,2.16521 6.36577,3.76275 6.57844,3.55008 0.21267,-0.21267 -0.94533,-2.55146 -2.57334,-5.1973 -3.04436,-4.94773 -5.8224,-12.07363 -5.0198,-12.87623 0.24898,-0.24898 1.86204,2.41011 3.58458,5.90908 4.01444,8.15449 10.09732,15.03306 17.55878,19.85563 3.25234,2.1021 6.275,3.82199 6.71701,3.82199 0.44201,0 -0.50576,-2.1375 -2.10616,-4.75 -1.6004,-2.6125 -3.20004,-6.1 -3.55474,-7.75 -0.5088,-2.36682 0.16683,-1.7252 3.20112,3.03996 6.78601,10.65697 8.22331,12.21296 18.88161,20.44086 13.52276,10.43918 14.08471,10.65197 11.58956,4.38864 -1.6086,-4.03793 -5.40492,-12.61289 -6.91507,-15.61946 -0.2072,-0.4125 0.14209,-0.75 0.77619,-0.75 1.01509,0 10.99536,19.64526 11.02541,21.7025 0.006,0.43862 4.06369,4.9723 9.01619,10.07484 l 9.00454,9.27734 -0.59233,-4.27734 c -0.84336,-6.09006 -4.28789,-17.55876 -6.68468,-22.25685 -1.72527,-3.38182 -1.77589,-3.78241 -0.32587,-2.579 0.94417,0.78359 2.53525,3.02982 3.53574,4.99161 2.06006,4.03946 6.51376,18.5506 7.53507,24.55091 0.37296,2.1912 2.66155,7.74421 5.08575,12.34001 5.30802,10.06299 5.9415,9.43265 5.85309,-5.82402 -0.0678,-11.69894 -1.79492,-17.65947 -7.70685,-26.59718 -8.15797,-12.3333 -28.23472,-29.24649 -33.22901,-27.993 -1.60759,0.40348 -3.24053,-0.59748 -6.57123,-4.02805 -10.12009,-10.42351 -25.5001,-19.02117 -44.43206,-24.83818 -12.2179,-3.75406 -17.55735,-4.74421 -19.40978,-3.59935 -0.68098,0.42087 -1.69318,4.1705 -2.24933,8.33251 -2.34945,17.58246 5.70951,43.80986 19.94283,64.90274 7.81829,11.5862 14.24844,18.87959 22.49099,25.51038 l 7.46284,6.00355 6.88122,-0.88239 c 3.78468,-0.48531 10.16082,-1.83696 14.16921,-3.00366 z m 109.46371,-88.27111 c 2.07667,-1.45455 2.04096,-1.51751 -1.81669,-3.20264 -3.9261,-1.71502 -15.70738,-2.39457 -17.11477,-0.98718 -0.88838,0.88838 1.31216,3.07492 5.17977,5.14679 3.48203,1.86533 10.41068,1.38317 13.75169,-0.95697 z m 8.61777,-8.57357 c 2.23821,-3.02732 5.13054,-10.0678 5.13054,-12.48867 0,-1.19393 -4.55247,-2.55803 -13.15023,-3.94034 -10.26322,-1.65007 -21.84977,4.98556 -21.84977,12.51338 0,2.51913 0.46436,2.46328 4.38539,-0.52743 4.07155,-3.10552 11.95692,-6.05596 11.36574,-4.25267 -0.22233,0.67818 -2.38231,2.56747 -4.79996,4.19843 l -4.39572,2.96538 8.97228,2.16974 c 11.84465,2.86436 11.74933,2.8686 14.34173,-0.63781 z m -51.73176,-17.30481 c 10.65412,-3.20935 17.77826,-10.72789 18.63741,-19.66916 0.74548,-7.75837 -2.94294,-13.94526 -14.91666,-25.02093 -5.42215,-5.01548 -9.85845,-8.88867 -9.85845,-8.6071 0,0.28156 1.34243,3.99817 2.98317,8.25912 1.64075,4.26095 2.84628,7.88408 2.67897,8.0514 -0.16732,0.16732 -1.98571,-2.95276 -4.04086,-6.93349 -3.5528,-6.88161 -3.71165,-7.04091 -3.22856,-3.23771 0.27945,2.2 0.7494,7.15 1.04434,11 l 0.53624,7 -1.50789,-5 c -0.82934,-2.75 -1.78406,-6.69847 -2.12159,-8.77438 -0.33753,-2.07591 -0.96565,-3.9919 -1.39582,-4.25776 -0.98632,-0.60958 -3.5072,6.91731 -5.36943,16.03214 l -1.43015,7 0.46541,-7.5 c 0.25597,-4.125 0.68371,-9.525 0.95052,-12 0.40176,-3.72676 0.28903,-4.15634 -0.65606,-2.5 -4.39507,7.7027 -12.25275,20.5 -12.58721,20.5 -0.22293,0 1.17554,-3.0375 3.1077,-6.75 3.31349,-6.36661 7.76362,-18.25 6.83431,-18.25 -0.63991,0 -9.15281,6.8342 -14.25352,11.4428 -4.29206,3.87796 -4.35927,3.90257 -1.52147,0.5572 1.63294,-1.925 6.12863,-6.79255 9.99044,-10.81677 l 7.02146,-7.31678 -7.75,4.15364 c -4.2625,2.2845 -7.75,3.94886 -7.75,3.69858 0,-0.25028 2.925,-2.16567 6.5,-4.2564 3.575,-2.09074 6.5,-4.13101 6.5,-4.53394 0,-0.40293 -1.96292,-0.14184 -4.36205,0.58019 -2.39913,0.72203 -7.91163,1.84201 -12.25,2.48885 -17.28837,2.57764 -25.71481,9.78961 -25.7078,22.00263 0.009,15.33705 16.73719,29.98113 38.81985,33.98302 6.16147,1.1166 18.78593,0.43759 24.6377,-1.32515 z m 34.24771,-26.63327 c 7.30709,-1.19664 12.8975,-4.01188 18.22088,-9.17571 10.96254,-10.63399 13.19668,-28.48799 5.07488,-40.55567 -12.61267,-18.74038 -39.60343,-19.23258 -59.29525,-1.0813 -4.3501,4.00979 -5.15928,6.01892 -3.48718,8.65849 0.68257,1.07748 2.02793,0.49474 6.29426,-2.72638 4.80738,-3.6296 17.47034,-10.18809 19.53504,-10.11772 0.42458,0.0145 -2.42502,1.7237 -6.33244,3.79829 -7.43369,3.94681 -18.70971,12.85815 -17.90916,14.15346 0.25598,0.41419 2.63888,-0.28711 5.29533,-1.55844 8.6036,-4.11754 23.81975,-8.45687 29.21823,-8.33243 1.375,0.0317 -0.875,0.89176 -5,1.91127 -4.125,1.01951 -10.425,3.16438 -14,4.76637 l -6.5,2.91273 15.68265,0.57384 c 8.62546,0.31561 16.41545,0.98393 17.31109,1.48516 1.03734,0.58053 -1.4364,0.75046 -6.81499,0.46815 -7.56183,-0.39689 -26.38732,1.07197 -30.92875,2.41323 -2.15093,0.63524 -2.31752,2.38206 -0.22718,2.38206 2.65788,0 15.96899,6.01419 19.03177,8.59889 l 2.94541,2.48565 -4,-1.90518 c -6.22602,-2.96543 -14.22391,-5.35713 -16.72665,-5.00197 -1.91477,0.27172 -1.09036,1.20347 5.22665,5.9071 8.76096,6.5234 14.36303,12.45526 16.42625,17.39323 1.6276,3.8954 2.08107,4.00079 10.95916,2.54688 z m -94.00002,-25.50498 c 5.22816,-3.98771 11.35738,-5.66181 22.89398,-6.25313 5.92865,-0.30387 10.97807,-0.87402 11.22093,-1.26698 0.72744,-1.17701 -9.27194,-3.96432 -16.69783,-4.65449 -4.30399,-0.40001 -6.43616,-0.96141 -5.61912,-1.4795 2.21067,-1.4018 9.26634,-0.9667 17.94767,1.10678 4.54174,1.08477 8.49016,1.73985 8.77427,1.45575 0.63169,-0.6317 -3.78529,-4.33711 -10.15142,-8.51605 -2.61037,-1.71354 -4.53226,-3.46156 -4.27086,-3.8845 0.56219,-0.90965 -9.04855,-6.98665 -16.63381,-10.51778 -2.94206,-1.3696 -4.60244,-2.49458 -3.68973,-2.49995 2.73537,-0.0161 21.33117,9.72956 26.7733,14.03132 3.0184,2.38591 5.06723,3.45018 5.06723,2.6322 0,-2.08906 -5.53526,-9.45676 -12.33861,-16.42329 -3.35699,-3.4375 -5.63215,-6.25 -5.05592,-6.25 1.70879,0 15.77102,15.03215 19.8789,21.25 3.47256,5.2562 5.51563,7.07366 5.51563,4.90655 0,-0.4639 -0.87576,-3.3889 -1.94614,-6.5 -1.07038,-3.1111 -1.75296,-5.65655 -1.51684,-5.65655 0.23611,0 1.616,2.3625 3.06643,5.25 3.32269,6.61476 3.30382,6.5973 4.84704,4.48682 1.83567,-2.51043 0.324,-9.50027 -3.68563,-17.04202 -4.57462,-8.60444 -12.76979,-16.61794 -21.24383,-20.7729 -6.46088,-3.16787 -7.68578,-3.42184 -16.5,-3.42115 -11.60889,9.1e-4 -16.74497,2.00986 -23.4547,9.17416 -13.61069,14.53279 -10.04479,39.45554 7.21099,50.39882 2.53783,1.60945 5.00616,2.92627 5.48518,2.92627 0.47902,0 2.33432,-1.11617 4.12289,-2.48038 z m 50.84658,-7.26962 c 1.5291,-1.73541 1.39535,-7.74426 -0.19424,-8.72668 -0.40242,-0.24871 -1.94614,0.81542 -3.43048,2.36473 -2.41117,2.51673 -2.57023,3.09909 -1.49251,5.46444 1.403,3.07923 2.95504,3.35144 5.11723,0.89751 z m 74.77081,-21.75732 c 0.52431,-1.37903 1.50172,-2.39153 2.17204,-2.25 0.67031,0.14152 2.5927,-2.21768 4.27196,-5.24268 2.8044,-5.05179 3.05313,-6.27419 3.05213,-15 -9.8e-4,-8.56376 -0.29663,-10.0866 -3,-15.45222 -6.64521,-13.18935 -20.43044,-22.60302 -35.99891,-24.582953 -8.99555,-1.14402 -15.5,-0.48767 -15.5,1.564053 0,0.7442 0.38572,1.59147 0.85714,1.88283 2.87094,1.77434 4.4801,22.20392 2.35026,29.83829 -0.5754,2.0625 -0.81709,3.75 -0.53709,3.75 0.77317,0 3.9846,-3.95748 7.50536,-9.24894 1.73788,-2.61192 3.33819,-4.57053 3.55624,-4.35248 0.5865,0.58649 -6.57045,14.59599 -9.34099,18.2847 -3.0257,4.02842 -2.99779,4.31672 0.41791,4.31672 3.36526,0 12.14469,-5.13228 21.134,-12.35452 12.98027,-10.42867 10.63031,-6.78051 -3.6286,5.63316 l -8.23188,7.1666 4.60329,1.46916 4.60328,1.46917 10.10554,-5.1805 c 10.2471,-5.25307 10.02627,-4.14345 -0.63717,3.20157 l -4.7427,3.2668 4.48188,3.21864 c 2.46503,1.77025 5.94925,4.98607 7.7427,7.14626 1.79346,2.16018 3.38447,3.93572 3.53558,3.94563 0.15111,0.01 0.70373,-1.11027 1.22803,-2.48929 z m -66.68296,-6.38037 c 5.72793,-3.95688 9.85376,-8.0508 13.59787,-13.49267 4.75388,-6.90953 6.32627,-12.12129 6.40881,-21.24223 0.0652,-7.21143 -0.28817,-8.85725 -3.15061,-14.6717 -7.87417,-15.994703 -25.37973,-24.781763 -43.43117,-21.800633 -18.94301,3.12837 -32.74472,17.024043 -32.74472,32.967633 v 6.12729 l 4.75,0.0436 c 2.6125,0.0239 6.775,0.4349 9.25,0.91322 2.475,0.47832 4.65014,0.72109 4.83364,0.53948 0.1835,-0.1816 -1.279,-4.36085 -3.25,-9.2872 -5.20221,-13.0025 -4.38147,-13.26007 2.30088,-0.72209 3.77407,7.08122 7.14448,12.03005 9.48106,13.92121 1.99394,1.61383 3.86908,2.6905 4.16698,2.39261 0.45264,-0.45264 -3.54678,-18.9105 -5.15711,-23.80078 -0.29905,-0.90814 -0.15654,-1.10543 0.36116,-0.5 0.47031,0.55 1.45367,2.8 2.18525,5 3.51333,10.56523 8.57675,22.34008 10.94818,25.45969 1.44648,1.90283 2.97485,4.15283 3.39638,5 0.42154,0.84717 0.58037,-6.55969 0.35297,-16.45969 -0.22739,-9.9 -0.25138,-17.55 -0.0533,-17 0.19808,0.55 1.29255,7.975 2.43216,16.5 2.56972,19.22317 4.02716,27 5.06001,27 1.25169,0 4.91155,-10.5346 7.46939,-21.5 1.69417,-7.26284 2.35177,-8.96907 2.4025,-6.23358 0.0759,4.09103 -4.16489,26.59059 -5.84451,31.00832 -1.29821,3.41457 -0.92298,3.40017 4.23418,-0.16243 z m -25.32588,235.38039 c -1.10651,-1.33326 -1.06338,-1.85183 0.26442,-3.17963 2.1445,-2.1445 4.97193,-0.95307 4.56178,1.92224 -0.39071,2.73897 -3.02665,3.42572 -4.8262,1.25739 z m 50.36769,0.007 c -0.7922,-2.06442 0.28192,-4.5 1.98454,-4.5 0.77492,0 1.96914,0.675 2.65383,1.5 0.99319,1.19672 0.99319,1.80328 0,3 -0.68469,0.825 -1.87891,1.5 -2.65383,1.5 -0.77492,0 -1.66796,-0.675 -1.98454,-1.5 z"
       id="path907" />
    <ellipse
       style="fill:none;stroke:#992299;stroke-width:4.168;stroke-dasharray:none;stroke-opacity:1"
       id="path961"
       cx="255.07166"
       cy="246.84912"
       rx="177.80164"
       ry="183.72403" />
  </g>
</svg>
